<svg id="Layer_1" data-name="Layer 1" xmlns="http://www.w3.org/2000/svg" viewBox="0 0 533.35 531.12"><title>bottombtn0201</title><path d="M305.75,131.05c-147.52,0-267.1,106.29-267.1,237.43,0,77,37.61,145.49,101.54,188.87.38.25-6.58,104.82-6.58,104.82L241,599.48a316.17,316.17,0,0,0,63,6.43c147.53,0,268-106.29,268-237.43S453.28,131.05,305.75,131.05Zm-130,271.81a33.34,33.34,0,1,1,33.34-33.33,33.33,33.33,0,0,1-33.34,33.33Zm129.54,0a33.34,33.34,0,1,1,33.34-33.33,33.33,33.33,0,0,1-33.34,33.33Zm129.54,0a33.34,33.34,0,1,1,33.33-33.33,33.34,33.34,0,0,1-33.33,33.33Zm0,0" transform="translate(-38.65 -131.05)" style="fill:#5b7b97"/></svg>