<svg id="Layer_1" data-name="Layer 1" xmlns="http://www.w3.org/2000/svg" viewBox="0 0 553.69 368.8"><title>bottombtn0302</title><rect width="553.69" height="368.8" style="fill:none"/><path d="M580.49,320c-7.17-28-50.53-42.06-126.82-34.89C421.07,239.44,367,211.4,305.34,211.4c-96.83,0-176,72.38-184.2,162.36,0,.65-.33,1.63-.33,2.28C52,410.93,23,442.55,30.18,470.59,37.35,495,70,509.06,124.4,509.06H157c36.19,42.05,86.72,70.09,148.34,70.09,89.61,0,160.88-58.85,180.46-138.68-5.88,6.72-27.16,21.7-102.8,31.53,0,0,51.72-10.81,106.86-53.9C547.89,386.47,591.58,355.18,580.49,320ZM66.69,460.15c0-3.58,10.76-20.86,54.45-45.64a14.63,14.63,0,0,1,.32,1.63c3.59,17.28,7.18,37.49,14.35,54.45C91.8,474.17,70.28,467,66.69,460.15ZM210.41,409a26.66,26.66,0,1,1,26.66-26.66A26.66,26.66,0,0,1,210.41,409ZM281,535.57a18.85,18.85,0,1,1,18.85-18.85A18.85,18.85,0,0,1,281,535.57Zm6.45-200.1a34.25,34.25,0,1,1,34.25-34.25A34.25,34.25,0,0,1,287.41,335.47ZM490.19,376c-3.59-17.6-7.17-38.47-14.35-52.49,46.95,0,65.21,6.85,68.79,10.44C544.31,337.57,530,355.18,490.19,376Z" transform="translate(-29.12 -211)" style="fill:#c0c8cf"/></svg>